<?xml version="1.0" encoding="utf-8"?>
<!-- Generator: Adobe Illustrator 16.0.0, SVG Export Plug-In . SVG Version: 6.00 Build 0)  -->
<!DOCTYPE svg PUBLIC "-//W3C//DTD SVG 1.1//EN" "http://www.w3.org/Graphics/SVG/1.1/DTD/svg11.dtd">
<svg version="1.1" id="Layer_1" xmlns="http://www.w3.org/2000/svg" xmlns:xlink="http://www.w3.org/1999/xlink" x="0px" y="0px"
	 width="50px" height="50px" viewBox="0 0 50 50" enable-background="new 0 0 50 50" xml:space="preserve">
<g>
	<polyline fill="#FFFFFF" points="12.333,24.154 12.332,24.154 12.329,24.155 12.333,24.154 	"/>
	<path fill="#E40011" d="M13.959,23.226c-0.27,0.158-0.522,0.313-0.65,0.395l-0.034,0.02l-0.944,0.515h0c0,0-0.002,0-0.004,0.001
		l0.003-0.001c-0.091,0.049-0.189,0.075-0.29,0.075c-0.207,0-0.395-0.113-0.491-0.294c-0.102-0.193-0.083-0.427,0.053-0.625
		c0.487-0.711,1.073-1.411,1.501-1.921c0.114-0.137,0.214-0.256,0.297-0.357c0.527-0.645,1.209-1.202,1.477-1.412
		c0.104-0.08,0.214-0.155,0.326-0.227l0.113-0.379h-3.376l-2.083,6.814l-1.072-5.584c-0.042-0.189-0.119-0.357-0.229-0.504
		c-0.11-0.147-0.244-0.276-0.402-0.387c-0.157-0.11-0.331-0.195-0.521-0.252c-0.189-0.058-0.378-0.086-0.568-0.086H3.533L0,30.767
		h3.486l2.461-8.172l1.657,8.172H11.8l2.162-7.218C13.958,23.443,13.955,23.335,13.959,23.226"/>
	<path fill="#EE9900" d="M23.124,25.974c0-0.052-0.003-0.104-0.005-0.154c-0.019-0.469-0.131-0.839-0.331-1.113
		c-0.253-0.358-0.631-0.61-1.137-0.757c-0.504-0.148-1.225-0.221-2.161-0.221h-0.567c-0.159,0-0.296-0.002-0.412-0.008
		c-0.115-0.005-0.216-0.016-0.3-0.032c-0.084-0.016-0.169-0.044-0.252-0.087c-0.2-0.094-0.334-0.228-0.402-0.401
		c-0.025-0.066-0.038-0.137-0.038-0.214c0.001-0.13,0.038-0.277,0.108-0.44c0.105-0.243,0.292-0.416,0.561-0.52
		c0.268-0.106,0.588-0.18,0.954-0.222l5.067-0.016l0.677-2.825h-5.774c-0.049,0-0.099-0.001-0.147-0.001
		c-0.852,0-1.571,0.087-2.158,0.261c-0.62,0.185-1.157,0.453-1.61,0.805c-0.078,0.061-0.161,0.128-0.243,0.197
		c-0.395,0.328-0.822,0.731-1.152,1.134c-0.393,0.481-1.168,1.363-1.769,2.243c-0.019,0.027-0.028,0.051-0.028,0.068
		c0,0.025,0.016,0.039,0.037,0.039c0.012,0,0.025-0.003,0.038-0.011l0.947-0.516c0.175-0.113,0.822-0.505,1.268-0.751
		c0.157-0.086,0.291-0.155,0.368-0.186c-0.059,0.168-0.104,0.336-0.134,0.502c-0.009,0.054-0.019,0.108-0.025,0.162
		c-0.011,0.079-0.018,0.158-0.022,0.236c-0.005,0.073-0.006,0.146-0.006,0.218c0,0.215,0.018,0.421,0.054,0.618
		c0.046,0.264,0.113,0.51,0.197,0.741c0.083,0.232,0.166,0.444,0.252,0.632c0.058,0.126,0.216,0.32,0.465,0.479
		c0.195,0.123,0.378,0.176,0.647,0.255c0.269,0.079,0.562,0.137,0.884,0.174c0.318,0.036,0.635,0.063,0.946,0.078
		c0.311,0.017,0.602,0.024,0.877,0.024c0.272,0,0.504-0.006,0.693-0.017c0.222,0.116,0.367,0.227,0.434,0.332
		c0.031,0.047,0.045,0.113,0.045,0.194c0,0.1-0.023,0.224-0.068,0.373c-0.075,0.22-0.216,0.384-0.426,0.488
		c-0.209,0.105-0.457,0.177-0.743,0.213c-0.283,0.037-0.584,0.056-0.899,0.056h-4.638l-0.679,2.76h4.321
		c0.948,0,1.722-0.034,2.321-0.103c0.6-0.069,1.083-0.192,1.453-0.371c0.6-0.284,1.075-0.697,1.428-1.239
		c0.352-0.542,0.635-1.133,0.845-1.774C23.043,26.83,23.121,26.395,23.124,25.974"/>
	<path fill="#E40011" d="M36.143,19.014c-0.41,0-0.811,0.097-1.199,0.292c-0.389,0.195-0.72,0.459-0.994,0.796l-2.258,2.839
		l-0.518-2.697c-0.044-0.19-0.121-0.357-0.229-0.505c-0.11-0.147-0.244-0.276-0.403-0.387c-0.157-0.11-0.33-0.195-0.521-0.252
		c-0.188-0.057-0.378-0.086-0.567-0.086H25.92l-3.535,11.751h3.486l2.461-8.171l1.074,5.618h0.772l4.512-5.476l-2.43,8.029h3.534
		l3.519-11.751H36.143z"/>
	<path fill="#E60012" d="M42.095,24.685c0.272-0.847,0.631-1.654,1.072-2.421c0.074-0.137,0.179-0.25,0.316-0.34
		c0.135-0.089,0.284-0.134,0.44-0.134h5.223L50,18.965h-6.976c-0.326,0-0.646,0.052-0.961,0.158
		c-0.316,0.105-0.616,0.248-0.899,0.426c-0.284,0.179-0.539,0.389-0.766,0.63c-0.227,0.243-0.413,0.5-0.561,0.773
		c-0.484,0.926-0.899,1.881-1.246,2.864c-0.346,0.984-0.616,1.996-0.805,3.039c-0.073,0.399-0.094,0.825-0.063,1.277
		c0.031,0.452,0.127,0.873,0.283,1.263c0.158,0.39,0.393,0.722,0.704,0.994c0.31,0.273,0.713,0.436,1.205,0.489
		c2.126,0.242,4.235,0.204,6.327-0.113h0.71l1.721-5.364h-3.52l-0.882,2.683c-0.369,0-0.737,0.005-1.105,0.015
		c-0.368,0.011-0.73-0.01-1.09-0.063c-0.156-0.021-0.291-0.116-0.401-0.284c-0.111-0.168-0.154-0.326-0.134-0.473
		C41.636,26.396,41.821,25.531,42.095,24.685"/>
</g>
</svg>
